<svg id="Livello_1" data-name="Livello 1" xmlns="http://www.w3.org/2000/svg" viewBox="0 0 36 36.05"><defs><style>.cls-1{fill:#b50f0f;stroke:#fff;stroke-miterlimit:10;stroke-width:1.5px;}.cls-2{isolation:isolate;}.cls-3{fill:#fff;}</style></defs><title>icon-40x40tris</title><rect x="0.5" y="0.5" width="35" height="35"/><path d="M37,3V37H3V3H37m1-1H2V38H38V2Z" transform="translate(-2 -2)"/><path class="cls-1" d="M17,37.3h6a.57.57,0,0,0,.4-.9c-1.2-1.4-3.5-3.9-3.4-3.9s-2.1,2.5-3.2,3.9A.49.49,0,0,0,17,37.3Z" transform="translate(-2 -2)"/><g class="cls-2"><path class="cls-3" d="M6,17.65c2.13,0,2.43-1.17,2.43-2.22a17.9,17.9,0,0,0-.24-2.52,17.49,17.49,0,0,1-.24-2.49c0-2.76,1.8-3.93,4.35-3.93h.63V8.14h-.54c-1.77,0-2.37,1-2.37,2.58a13.13,13.13,0,0,0,.21,2.13,14,14,0,0,1,.21,2.28c0,1.92-.81,2.88-2.16,3.24v.06c1.35.33,2.19,1.35,2.16,3.27A13.69,13.69,0,0,1,10.19,24,13.49,13.49,0,0,0,10,26.14c0,1.68.69,2.61,2.37,2.61h.54V30.4h-.63c-2.49,0-4.35-1.08-4.35-4.11a17.07,17.07,0,0,1,.24-2.46,16.67,16.67,0,0,0,.24-2.43c0-.93-.3-2.22-2.43-2.22Z" transform="translate(-2 -2)"/><path class="cls-3" d="M34,19.18c-2.13,0-2.43,1.29-2.43,2.22a16.67,16.67,0,0,0,.24,2.43,17.07,17.07,0,0,1,.24,2.46c0,3-1.89,4.11-4.35,4.11h-.63V28.75h.51c1.68,0,2.4-.93,2.4-2.61A18.13,18.13,0,0,0,29.81,24a13.62,13.62,0,0,1-.24-2.28c0-1.92.84-2.94,2.16-3.27v-.06c-1.32-.36-2.16-1.32-2.16-3.24a14,14,0,0,1,.24-2.28A17.64,17.64,0,0,0,30,10.72c0-1.62-.63-2.55-2.37-2.58h-.54V6.49h.6c2.55,0,4.38,1.17,4.38,3.93a17.49,17.49,0,0,1-.24,2.49,17.9,17.9,0,0,0-.24,2.52c0,1.05.3,2.22,2.43,2.22Z" transform="translate(-2 -2)"/></g><path class="cls-3" d="M27.8,18.1a.76.76,0,0,0-.4-.2H25.2V15l1.7-1.7a.9.9,0,0,0,.1-.5.52.52,0,0,0-.2-.4.5.5,0,0,0-.8,0l-1.7,1.7H15.9L14,12.3a.76.76,0,0,0-.4-.2c-.2,0-.3.1-.5.2a.9.9,0,0,0-.1.5c0,.2.1.3.2.5L14.9,15v2.9H12.7a.52.52,0,0,0-.4.2.76.76,0,0,0-.2.4.52.52,0,0,0,.2.4.76.76,0,0,0,.4.2h2.2a5.4,5.4,0,0,0,.6,2.7l-2,2.3a.76.76,0,0,0-.2.5.52.52,0,0,0,.2.4.76.76,0,0,0,.4.2c.2,0,.3-.1.5-.2l1.8-2.1.2.1a1.38,1.38,0,0,0,.4.3,4.35,4.35,0,0,0,.7.4,4.65,4.65,0,0,0,.9.3,3.4,3.4,0,0,0,1,.1v-9h1.3v9a3.75,3.75,0,0,0,1-.1,6.89,6.89,0,0,0,.8-.3,2.09,2.09,0,0,0,.6-.4c.2-.1.4-.2.4-.3s.1-.1.2-.1l2,2a.76.76,0,0,0,.4.2c.2,0,.3-.1.5-.2a.76.76,0,0,0,.2-.5.52.52,0,0,0-.2-.4l-2.1-2.1a6.53,6.53,0,0,0,.7-2.9h2.2a.52.52,0,0,0,.4-.2.76.76,0,0,0,.2-.4A1.44,1.44,0,0,0,27.8,18.1Z" transform="translate(-2 -2)"/><path class="cls-3" d="M22.3,10.5A3.17,3.17,0,0,0,20,9.6a3.34,3.34,0,0,0-2.3.9,3.17,3.17,0,0,0-.9,2.3h6.4A3.34,3.34,0,0,0,22.3,10.5Z" transform="translate(-2 -2)"/></svg>